<mxfile host="65bd71144e">
    <diagram id="3B1NLTd45HHyplxFVydc" name="Page-1">
        <mxGraphModel dx="1164" dy="1015" grid="1" gridSize="10" guides="1" tooltips="1" connect="1" arrows="1" fold="1" page="1" pageScale="1" pageWidth="850" pageHeight="1100" math="0" shadow="0">
            <root>
                <mxCell id="0"/>
                <mxCell id="1" parent="0"/>
                <mxCell id="10" value="Auth" style="swimlane;fontStyle=0;childLayout=stackLayout;horizontal=1;startSize=26;fillColor=none;horizontalStack=0;resizeParent=1;resizeParentMax=0;resizeLast=0;collapsible=1;marginBottom=0;html=1;rounded=1;" parent="1" vertex="1">
                    <mxGeometry x="90" y="180" width="180" height="200" as="geometry"/>
                </mxCell>
                <mxCell id="11" value="&lt;ul&gt;&lt;li&gt;id: string&lt;/li&gt;&lt;li&gt;role: &quot;admin&quot;, &quot;user&quot;&lt;/li&gt;&lt;li&gt;email: string&lt;/li&gt;&lt;li&gt;phoneNumber?: string&lt;/li&gt;&lt;li&gt;oauth: boolean&lt;/li&gt;&lt;li&gt;password?: string&lt;/li&gt;&lt;li&gt;createdAt: string&lt;/li&gt;&lt;/ul&gt;" style="text;strokeColor=none;fillColor=none;align=left;verticalAlign=top;spacingLeft=4;spacingRight=4;overflow=hidden;rotatable=0;points=[[0,0.5],[1,0.5]];portConstraint=eastwest;whiteSpace=wrap;html=1;rounded=1;" parent="10" vertex="1">
                    <mxGeometry y="26" width="180" height="174" as="geometry"/>
                </mxCell>
                <mxCell id="17" value="Users" style="swimlane;fontStyle=0;childLayout=stackLayout;horizontal=1;startSize=26;fillColor=none;horizontalStack=0;resizeParent=1;resizeParentMax=0;resizeLast=0;collapsible=1;marginBottom=0;html=1;rounded=1;" parent="1" vertex="1">
                    <mxGeometry x="350" y="180" width="190" height="250" as="geometry"/>
                </mxCell>
                <mxCell id="18" value="&lt;ul&gt;&lt;li&gt;id: string&lt;/li&gt;&lt;li&gt;authId: string&lt;/li&gt;&lt;li&gt;username: string&lt;/li&gt;&lt;li&gt;fullName?: string&lt;/li&gt;&lt;li&gt;email?: string&lt;/li&gt;&lt;li&gt;phoneNumber?: string&lt;/li&gt;&lt;li&gt;twitter?:string&lt;br&gt;&lt;/li&gt;&lt;li&gt;linkedin?: string&lt;br&gt;&lt;/li&gt;&lt;li&gt;facebook?: string&lt;br&gt;&lt;/li&gt;&lt;li&gt;instagram?: string&lt;/li&gt;&lt;/ul&gt;" style="text;strokeColor=none;fillColor=none;align=left;verticalAlign=top;spacingLeft=4;spacingRight=4;overflow=hidden;rotatable=0;points=[[0,0.5],[1,0.5]];portConstraint=eastwest;whiteSpace=wrap;html=1;rounded=1;" parent="17" vertex="1">
                    <mxGeometry y="26" width="190" height="224" as="geometry"/>
                </mxCell>
                <mxCell id="19" value="Friends" style="swimlane;fontStyle=0;childLayout=stackLayout;horizontal=1;startSize=26;fillColor=none;horizontalStack=0;resizeParent=1;resizeParentMax=0;resizeLast=0;collapsible=1;marginBottom=0;html=1;rounded=1;" parent="1" vertex="1">
                    <mxGeometry x="580" y="170" width="180" height="140" as="geometry"/>
                </mxCell>
                <mxCell id="20" value="&lt;ul&gt;&lt;li&gt;id: string&lt;/li&gt;&lt;li&gt;sender: string&lt;/li&gt;&lt;li&gt;reciever: string&lt;/li&gt;&lt;li&gt;createdAt: Date&lt;/li&gt;&lt;/ul&gt;" style="text;strokeColor=none;fillColor=none;align=left;verticalAlign=top;spacingLeft=4;spacingRight=4;overflow=hidden;rotatable=0;points=[[0,0.5],[1,0.5]];portConstraint=eastwest;whiteSpace=wrap;html=1;rounded=1;" parent="19" vertex="1">
                    <mxGeometry y="26" width="180" height="114" as="geometry"/>
                </mxCell>
                <mxCell id="21" value="FriendRequests" style="swimlane;fontStyle=0;childLayout=stackLayout;horizontal=1;startSize=26;fillColor=none;horizontalStack=0;resizeParent=1;resizeParentMax=0;resizeLast=0;collapsible=1;marginBottom=0;html=1;rounded=1;" parent="1" vertex="1">
                    <mxGeometry x="471" y="20" width="180" height="130" as="geometry"/>
                </mxCell>
                <mxCell id="22" value="&lt;ul&gt;&lt;li&gt;id: string&lt;/li&gt;&lt;li&gt;sender: string&lt;/li&gt;&lt;li&gt;reciever: string&lt;/li&gt;&lt;li&gt;createdAt: Date&lt;/li&gt;&lt;/ul&gt;" style="text;strokeColor=none;fillColor=none;align=left;verticalAlign=top;spacingLeft=4;spacingRight=4;overflow=hidden;rotatable=0;points=[[0,0.5],[1,0.5]];portConstraint=eastwest;whiteSpace=wrap;html=1;rounded=1;" parent="21" vertex="1">
                    <mxGeometry y="26" width="180" height="104" as="geometry"/>
                </mxCell>
                <mxCell id="23" value="Groups" style="swimlane;fontStyle=0;childLayout=stackLayout;horizontal=1;startSize=26;fillColor=none;horizontalStack=0;resizeParent=1;resizeParentMax=0;resizeLast=0;collapsible=1;marginBottom=0;html=1;rounded=1;" parent="1" vertex="1">
                    <mxGeometry x="550" y="490" width="250" height="170" as="geometry"/>
                </mxCell>
                <mxCell id="24" value="&lt;ul&gt;&lt;li&gt;id: string&lt;/li&gt;&lt;li&gt;name: string&lt;/li&gt;&lt;li&gt;ownerId: string&lt;/li&gt;&lt;li&gt;created: Date&lt;/li&gt;&lt;li&gt;groupHandle: string&lt;/li&gt;&lt;li&gt;groupType: &quot;public&quot;, &quot;link&quot;,&quot;private&quot;&lt;/li&gt;&lt;/ul&gt;" style="text;strokeColor=none;fillColor=none;align=left;verticalAlign=top;spacingLeft=4;spacingRight=4;overflow=hidden;rotatable=0;points=[[0,0.5],[1,0.5]];portConstraint=eastwest;whiteSpace=wrap;html=1;rounded=1;" parent="23" vertex="1">
                    <mxGeometry y="26" width="250" height="144" as="geometry"/>
                </mxCell>
                <mxCell id="25" value="GroupMembers" style="swimlane;fontStyle=0;childLayout=stackLayout;horizontal=1;startSize=26;fillColor=none;horizontalStack=0;resizeParent=1;resizeParentMax=0;resizeLast=0;collapsible=1;marginBottom=0;html=1;rounded=1;" parent="1" vertex="1">
                    <mxGeometry x="471" y="710" width="250" height="150" as="geometry"/>
                </mxCell>
                <mxCell id="26" value="&lt;ul&gt;&lt;li&gt;id: string&lt;/li&gt;&lt;li&gt;userId: string&lt;/li&gt;&lt;li&gt;groupId: string&lt;/li&gt;&lt;li&gt;role: &quot;owner&quot;, &quot;admin&quot;, &quot;editor&quot;,&amp;nbsp;&quot;user&quot;&lt;/li&gt;&lt;li&gt;createdAt: Date&lt;/li&gt;&lt;/ul&gt;" style="text;strokeColor=none;fillColor=none;align=left;verticalAlign=top;spacingLeft=4;spacingRight=4;overflow=hidden;rotatable=0;points=[[0,0.5],[1,0.5]];portConstraint=eastwest;whiteSpace=wrap;html=1;rounded=1;" parent="25" vertex="1">
                    <mxGeometry y="26" width="250" height="124" as="geometry"/>
                </mxCell>
            </root>
        </mxGraphModel>
    </diagram>
</mxfile>